<svg xmlns="http://www.w3.org/2000/svg" xmlns:xlink="http://www.w3.org/1999/xlink" viewBox="0 0 800 600" width="800" height="600"><linearGradient id="a" gradientUnits="userSpaceOnUse" x1="393.362" y1="563.338" x2="395.102" y2="513.509" gradientTransform="translate(0 -26)"><stop offset="0" stop-color="#253338" stop-opacity="0"/><stop offset="1" stop-color="#253338" stop-opacity=".5"/></linearGradient><path opacity=".25" fill="url(#a)" d="M635.2 497.4l-463.7.5-121.4 38.5 686.3 10.4-101.2-49.4z"/><path fill="#E6EDEF" d="M634 495.9L171.5 498l12.3-352.1 440.1 13.5L634 495.9z"/><linearGradient id="b" gradientUnits="userSpaceOnUse" x1="402.469" y1="-394.349" x2="409.913" y2="-45.295" gradientTransform="matrix(1 0 0 -1 0 116)"><stop offset="0" stop-color="#dbdbdb"/><stop offset="1" stop-color="#fff"/></linearGradient><path fill="url(#b)" d="M634 495.9L171.5 498l12.3-322 440.1 7.1L634 495.9z"/><path fill="#FFF" d="M623.8 196.6l-442.3-6.3-9.9 307.6 462.5-2.1-10.3-299.2z"/><path fill="#E6EDEF" d="M613.5 281.3c-1.5 0-2.7-1.3-2.7-2.6l-.6-36.5c0-1.5 1.3-2.7 2.6-2.7 1.5 0 2.7 1.3 2.7 2.6l.5 36.4c.2 1.4-1.1 2.6-2.5 2.8z"/><path fill="#2C3F49" d="M606.4 202.2v37.4l-427.1-3.9 3.8-44.3z" opacity=".5"/><path opacity=".05" fill="#2C3F49" d="M623.8 199.7l-442.3-9.3.1.9 1.5.1 423.3 10.8 17.7.5z"/><linearGradient id="c" gradientUnits="userSpaceOnUse" x1="402.627" y1="-468.646" x2="402.627" y2="-131.614" gradientTransform="matrix(1 0 0 -1 0 116)"><stop offset="0" stop-color="#788a8e" stop-opacity=".5"/><stop offset=".502" stop-color="#9bb3ba" stop-opacity=".2"/><stop offset="1" stop-color="#202f35" stop-opacity="0"/></linearGradient><path opacity=".5" fill="url(#c)" d="M623.8 196.6l-442.3-6.3-10.1 307.6 462.5-2.1-10.1-299.2z"/><path fill="#CDD2D3" d="M624.2 169.7l3 81.5c1.2 27.1 1.9 54.3 2.8 81.5l2.7 81.5 2.6 81.5v1.5h-1.5l-56.9.3-56.9.1-114 .6H292l-113.9-.3 113.9-1.4 113.9-.9 113.9-.6 56.9-.3 56.9-.1-1.5 1.5-2.3-81.5-2.2-81.5c-.6-27.1-1.5-54.3-2.1-81.5l-1.3-81.9z"/><path fill="#FFF" d="M171.5 497.9l2.3-88 2.6-88 2.7-88 2.8-88v-1.5h1.5c36.8 1.2 73.4 2.2 110.1 3.5l110.1 3.6 110.1 3.9 110.1 4.3-110.1-2.7-110.1-2.8-110.1-3.1c-36.8-1.2-73.4-2.1-110.1-3.4l1.5-1.4-3.1 88-3.4 88-3.5 88-3.4 87.6z"/><path fill="#FFF" d="M340.9 181l-95.4-1.4 9.9-21.3 76.6 2.1 8.9 20.6z"/><path fill="#E6EDEF" d="M259.5 172l-1.4-1.4 2.8-2.8-3-3 1.4-1.4 3 3 2.7-2.7 1.4 1.4-2.7 2.7 2.7 2.7-1.4 1.4-2.7-2.7-2.8 2.8z"/><path opacity=".5" fill="#E6EDEF" d="M275.4 166.7v4.8l48.6.6v-4.5l-48.6-.9z"/><path opacity=".1" fill="#2C3F49" d="M207.3 162.3c0 3-2.5 5.5-5.7 5.3-3.1-.1-5.8-2.6-5.8-5.8 0-3.1 2.6-5.5 5.8-5.3 3.2.3 5.7 2.7 5.7 5.8zm15.7.6c0 3-2.3 5.3-5.3 5.2-3-.1-5.5-2.6-5.5-5.7 0-3 2.5-5.3 5.5-5.2 3 .2 5.3 2.7 5.3 5.7zm15.1.6c0 2.8-2.3 5.2-5 5-2.8-.1-5.2-2.5-5.2-5.5s2.3-5.2 5.2-5 5 2.6 5 5.5z"/><path fill="#1ED3A3" d="M238.1 162.4c0 2.8-2.3 5.2-5 5-2.8-.1-5.2-2.5-5.2-5.5s2.3-5.2 5.2-5 5 2.6 5 5.5z"/><path fill="#F9D970" d="M223 161.8c0 3-2.3 5.3-5.3 5.2-3-.1-5.5-2.6-5.5-5.7s2.5-5.3 5.5-5.2c3 .3 5.3 2.7 5.3 5.7z"/><path fill="#ED1C24" d="M207.3 161.3c0 3-2.5 5.5-5.7 5.3-3.2-.3-5.8-2.6-5.8-5.8 0-3.1 2.6-5.5 5.8-5.3 3.2.2 5.7 2.8 5.7 5.8z"/><path fill="#2C3F49" d="M507 293.8l-210.3 1.3v-15.5l210.3 1.3zM503.2 315.7L305.7 317v-15.5l197.5 1.3zM505.7 335.1l-209 1.3v-15.5l209 1.3z"/><path fill="#FFF" d="M200.7 204.1l43.1.4.4 17.6-43.5.9z"/><g><linearGradient id="d" gradientUnits="userSpaceOnUse" x1="488.021" y1="-3.632" x2="496.172" y2="333.827" gradientTransform="translate(.297 -.576)"><stop offset="0" stop-color="#2c3f49"/><stop offset="1" stop-color="#2c3f49" stop-opacity="0"/></linearGradient><path opacity=".1" fill="url(#d)" d="M385.1 131.2l3 125.2 2.4 109.8 189.1.2 7.9-122.3 10.2-116.8-206.9-.2z"/><path fill="#1DE1C3" d="M528.2 246.5l-3.4 19.6 15.1 18.4-38.4-15.2-2.9-21.6-106.7 4.2-1.1-124.8 206.9.2-10.2 116.8z"/><path fill="#1DE1C3" d="M528.2 246.5l-3.4 19.6 15.1 18.4-38.4-15.2-2.9-21.6-106.7 4.2-1.1-124.8 206.9.2-10.2 116.8z"/><radialGradient id="e" cx="437.955" cy="144.083" r="136.749" gradientTransform="translate(.297 -.576)" gradientUnits="userSpaceOnUse"><stop offset="0" stop-color="#fff" stop-opacity=".5"/><stop offset=".502" stop-color="#fff" stop-opacity=".2"/><stop offset="1" stop-color="#fff" stop-opacity="0"/></radialGradient><path opacity=".5" fill="url(#e)" d="M528.2 246.5l-3.4 19.6 15.1 18.4-38.4-15.2-2.9-21.6-106.7 4.2-1.1-124.8 206.9.2-10.2 116.8z"/><path fill="#18BDA3" d="M385.1 131.2l5.7-4.1 1.1 124.8 106.8-4.2 2.8 21.6 38.4 15.3-3 2-38.5-14.5-5.4-20.2-104.9 4.5zM528.2 246.5l59.3-2.4-5.7 4.2-54.2 1.9z"/><path fill="#F3F3F3" d="M564.6 163.2l-148.4.5-2.7-13.1L569 155zM573.8 186.3l-137.4-.5-2.5-10.9 140 4.9zM560.9 211.2l-141.2 2.2-2.2-10.6 142.9.1z"/></g><g><defs><path id="f" d="M528.1 246.5l-3.3 19.6 15.2 18.5-38.5-15.2-2.9-21.7-106.7 4.4-1.3-124.9h207l-10.1 116.9z"/></defs><clipPath id="g"><use xlink:href="#f" overflow="visible"/></clipPath><linearGradient id="h" gradientUnits="userSpaceOnUse" x1="458.683" y1="139.78" x2="459.001" y2="231.917"><stop offset="0" stop-color="#fff" stop-opacity=".5"/><stop offset=".502" stop-color="#fff" stop-opacity=".2"/><stop offset="1" stop-color="#fff" stop-opacity="0"/></linearGradient><path opacity=".25" clip-path="url(#g)" fill="url(#h)" d="M391.9 252.1L478 126.2l47.8.9-51.4 123.1z"/><linearGradient id="i" gradientUnits="userSpaceOnUse" x1="529.616" y1="140.052" x2="529.944" y2="235.173"><stop offset="0" stop-color="#fff" stop-opacity=".5"/><stop offset=".502" stop-color="#fff" stop-opacity=".2"/><stop offset="1" stop-color="#fff" stop-opacity="0"/></linearGradient><path opacity=".2" clip-path="url(#g)" fill="url(#i)" d="M551.2 126.8l-63.6 129.1 57.8-1.4L571.9 126z"/></g><g><path fill="#35464D" d="M744.1 242l-147.6 10.1-.1 91.8 48.8 1.3-6.3 19.1-16.6 4.1 34.8 6.3 17.6-28.5 57.4 1.9z"/><radialGradient id="j" cx="620.954" cy="273.765" r="260.671" gradientTransform="translate(.297 -.576)" gradientUnits="userSpaceOnUse"><stop offset="0" stop-color="#fff" stop-opacity=".5"/><stop offset=".502" stop-color="#fff" stop-opacity=".2"/><stop offset=".738" stop-color="#fff" stop-opacity=".052"/><stop offset="1" stop-color="#fff" stop-opacity="0"/></radialGradient><path opacity=".2" fill="url(#j)" d="M744.1 242l-147.6 10.1-.1 91.8 48.8 1.3-6.3 19.1-16.6 4.1 34.8 6.3 17.6-28.5 57.4 1.9z"/><path fill="#2C3F49" d="M596.4 343.9l5.8 6.2 41.1 1 1.9-5.9z"/><path fill="#2C3F49" d="M622.3 368.4l2.7 3.2 35.6 8.5 19.9-27.7 57.4 2 12-106.2-5.8-6.2-12 106.1-57.4-1.9-17.6 28.5z"/><path fill="#F3F3F3" d="M608.3 269.9l-1.5 6.7 120.1-1 4.3-9.7zM609.1 285.3v7.1l66.8.1v-5.8zM603.3 303.8l-.1 7.1 90.5-.6v-5.7z"/><g><defs><path id="k" d="M744.1 242l-147.6 10.1-.1 91.8 48.8 1.3-6.3 19.1-16.6 4.1 34.8 6.3 17.6-28.5 57.4 1.9z"/></defs><clipPath id="l"><use xlink:href="#k" overflow="visible"/></clipPath><radialGradient id="m" cx="573.497" cy="359.306" r="92.782" gradientTransform="rotate(72.741 694.65 362.148)" gradientUnits="userSpaceOnUse"><stop offset="0" stop-color="#fff" stop-opacity=".5"/><stop offset=".502" stop-color="#fff" stop-opacity=".2"/><stop offset="1" stop-color="#fff" stop-opacity="0"/></radialGradient><path opacity=".14" clip-path="url(#l)" fill="url(#m)" d="M683.2 214.3L532 364.6l46.7 31.6 95.1-155.9z"/><radialGradient id="n" cx="590.611" cy="321.24" r="115.888" gradientTransform="rotate(74.026 693.265 362.818)" gradientUnits="userSpaceOnUse"><stop offset="0" stop-color="#fff" stop-opacity=".5"/><stop offset=".502" stop-color="#fff" stop-opacity=".2"/><stop offset="1" stop-color="#fff" stop-opacity="0"/></radialGradient><path opacity=".12" clip-path="url(#l)" fill="url(#n)" d="M709.3 214.7L597.8 369.5l53.4 22.5 63-166.1z"/></g></g><g><path fill="#1DE1C3" d="M580.7 376.6l-92.3-1.5 2.7 52.2 40.8 1.9 24.6 13v-14.7l24.7-1.7z"/><radialGradient id="o" cx="511.239" cy="379.945" r="128.552" gradientTransform="matrix(.94 0 0 1 32.917 0)" gradientUnits="userSpaceOnUse"><stop offset="0" stop-color="#fff" stop-opacity=".5"/><stop offset=".502" stop-color="#fff" stop-opacity=".2"/><stop offset="1" stop-color="#fff" stop-opacity="0"/></radialGradient><path opacity=".5" fill="url(#o)" d="M580.7 376.6l-92.3-1.5 2.7 52.2 40.8 1.9 24.6 13v-14.7l24.7-1.7z"/><path fill="#18BDA3" d="M488.4 375.1l-8.5 4.3 4.7 52.7 41.5 1.1 24.6 13.1 5.8-4.1-24.6-13-40.8-1.9zM556.5 427.5l24.7-1.7-5.8 4.1-18.9 1.3z"/><path fill="#F3F3F3" d="M510.6 401.7l.3 6.4 7.7 1.3.5-9.5-7.1-.9zM568.4 405.9l-1.4-6.2-7.8.1 1.1 9.5 7.1-.5zM533.3 401.1l.3 6.3 7.8 1.4.3-9.1z"/></g><g><ellipse fill="#1DE1C3" cx="594.8" cy="459.2" rx="15.9" ry="16.3"/><path fill="#F3F3F3" d="M610.8 459.2c0 4.2-1.4 8.5-4.3 11.9-2.8 3.4-7.3 5.4-11.8 5.2-2.2-.1-4.4-.6-6.4-1.6s-3.7-2.3-5.2-3.9c-2.9-3.1-4.7-7.3-4.9-11.7-.2-4.4 1.4-8.9 4.5-12.1 1.5-1.6 3.4-3 5.4-3.9 2.1-.9 4.3-1.4 6.6-1.4 2.2 0 4.5.5 6.5 1.4 2 .9 3.8 2.3 5.3 4 3 3.6 4.3 7.9 4.3 12.1zm-.2 0c0-4.2-2-8.3-5-11-3-2.7-6.9-4.3-10.8-4.2-3.9 0-7.8 1.6-10.6 4.4-2.8 2.8-4.5 6.7-4.7 10.8-.1 2 .2 4.1 1 6 .7 1.9 1.9 3.7 3.3 5.2 2.9 3 7.1 4.4 11.1 4.2 4-.1 7.9-1.7 10.9-4.4 1.5-1.4 2.7-3.1 3.6-4.9.8-1.9 1.2-4 1.2-6.1z"/></g><g fill="#35464D"><path d="M586 460c0-.9.7-1.6 1.6-1.6.9 0 1.6.7 1.6 1.6 0 .9-.7 1.6-1.6 1.6-.9 0-1.6-.7-1.6-1.6zM593.2 460c0-.9.7-1.6 1.6-1.6.9 0 1.6.7 1.6 1.6 0 .9-.7 1.6-1.6 1.6-.9 0-1.6-.7-1.6-1.6zM600.4 460c0-.9.7-1.6 1.6-1.6.9 0 1.6.7 1.6 1.6 0 .9-.7 1.6-1.6 1.6-.9 0-1.6-.7-1.6-1.6z"/></g><path opacity=".1" fill="#253338" d="M536.9 286.6l-38.5-14.5-5.4-20.2-9.1.4-95.8 4.3-2.8-119.4-10.1 1.2 3.5 125.4 106.6-5.8 7.7 18.6z"/><path opacity=".05" fill="#253338" d="M480.4 385.6l4.2 46.5 41.5 1.1 24.6 13.1-25-7.5-46.8.6-5.3-54.2zM602.3 350.1l39.2 7 1.9-6z"/><radialGradient id="p" cx="587.94" cy="243.721" r="46.437" gradientUnits="userSpaceOnUse"><stop offset="0" stop-color="#fff" stop-opacity=".5"/><stop offset=".502" stop-color="#fff" stop-opacity=".2"/><stop offset="1" stop-color="#fff" stop-opacity="0"/></radialGradient><path opacity=".6" fill="url(#p)" d="M528.1 246.5l59.4-2.4 3.6-35.7L581 238z"/><radialGradient id="q" cx="534.556" cy="401.158" r="37.494" gradientUnits="userSpaceOnUse"><stop offset="0" stop-color="#fff" stop-opacity=".5"/><stop offset=".502" stop-color="#fff" stop-opacity=".2"/><stop offset="1" stop-color="#fff" stop-opacity="0"/></radialGradient><path fill="url(#q)" d="M491.1 427.3l-2.7-52.2 92.3 1.5-84 6.6z"/><radialGradient id="r" cx="534.556" cy="401.158" r="37.494" gradientUnits="userSpaceOnUse"><stop offset="0" stop-color="#fff" stop-opacity=".5"/><stop offset=".502" stop-color="#fff" stop-opacity=".2"/><stop offset="1" stop-color="#fff" stop-opacity="0"/></radialGradient><path fill="url(#r)" d="M491.1 427.3l-2.7-52.2 92.3 1.5-84 6.6z"/><radialGradient id="s" cx="414.647" cy="147.004" r="83.669" gradientUnits="userSpaceOnUse"><stop offset="0" stop-color="#fff" stop-opacity=".5"/><stop offset=".502" stop-color="#fff" stop-opacity=".2"/><stop offset="1" stop-color="#fff" stop-opacity="0"/></radialGradient><path opacity=".5" fill="url(#s)" d="M391.9 252.1l-1.3-124.9h207L398.1 135z"/><radialGradient id="t" cx="736.786" cy="340.123" r="118.431" gradientUnits="userSpaceOnUse"><stop offset="0" stop-color="#fff" stop-opacity=".5"/><stop offset=".502" stop-color="#fff" stop-opacity=".2"/><stop offset="1" stop-color="#fff" stop-opacity="0"/></radialGradient><path opacity=".2" fill="url(#t)" d="M596.5 252.1l147.6-10.3-12 106.2 1.8-96.3z"/><radialGradient id="u" cx="642.882" cy="338.227" r="80.389" gradientUnits="userSpaceOnUse"><stop offset="0" stop-color="#fff" stop-opacity=".5"/><stop offset=".502" stop-color="#fff" stop-opacity=".2"/><stop offset="1" stop-color="#fff" stop-opacity="0"/></radialGradient><path opacity=".2" fill="url(#u)" d="M596.5 252.1v91.8l48.8 1.2-44-5.2z"/><path opacity=".05" fill="#35464D" d="M610.4 497.6l96 34.6 29.2-6.1-100.3-28.7zM564.7 497.6l12.1.1-80.9 9.4-15.7-9.5z"/><path fill="#CDD2D3" d="M181.2 147l-9.7 350.9 120.5.3-117-3.7z"/></svg>